<?xml version="1.0" standalone="no"?>
<!DOCTYPE svg PUBLIC "-//W3C//DTD SVG 1.0//EN" "http://www.w3.org/TR/2001/REC-SVG-20010904/DTD/svg10.dtd">
<svg xmlns="http://www.w3.org/2000/svg" xmlns:xlink="http://www.w3.org/1999/xlink" id="body_1" width="1122" height="793">

<g transform="matrix(1.3333334 0 0 1.3333334 0 0)">
	<path  d="M0 0L841.5 0L841.5 594.75L0 594.75z" stroke="none"  fill="#FFFFFF" fill-rule="evenodd" />
	<g transform="matrix(0.75 0 0 0.75 0 0)">
		<g>
			<g transform="matrix(1 0 0 1 561.2598 396.8504)">
				<g>
					<g>
					</g>
					<g>
					</g>
					<g>
					</g>
				</g>
				<g>
					<g>
						<g>
							<path  d="M10.485753 38.527985C 11.537366 38.863586 12.621562 39.10959 13.720421 39.26273C 14.813577 39.414238 15.92221 39.474518 17.033287 39.43949L17.033287 39.43949L17.081347 39.43949C 18.48404 39.488365 19.880219 39.396317 21.246254 39.17068C 22.619625 38.943417 23.970184 38.576042 25.271872 38.079967C 26.571115 37.58552 27.821484 36.96156 28.99854 36.21867C 30.165009 35.482296 31.265497 34.625366 32.277195 33.6601C 33.335327 32.48956 34.26638 31.21801 35.05733 29.87641C 35.8605 28.512815 36.522747 27.071836 37.031036 25.583612C 37.54178 24.088873 37.901817 22.542814 38.10057 20.974762C 38.2977 19.423002 38.337616 17.838657 38.215427 16.246983L38.215427 16.246983L38.2138 -24.243782L38.2138 -24.243782L30.0583 -24.243782L30.0583 -24.243782L30.0583 -20.573322L30.0583 -20.573322L28.677599 -20.573322L28.677599 -20.573322L28.460924 -20.817688C 28.130207 -21.194027 27.782385 -21.548359 27.420713 -21.879894C 27.057415 -22.212242 26.670492 -22.529106 26.26565 -22.824799C 25.868137 -23.1156 25.449448 -23.387669 25.017727 -23.635296C 24.5803 -23.884556 24.135544 -24.109379 23.687529 -24.304878L23.687529 -24.304878L23.66798 -24.314651C 23.13932 -24.563095 22.593557 -24.78466 22.038021 -24.974453C 21.472706 -25.167507 20.909021 -25.327976 20.352669 -25.450977C 19.786541 -25.57642 19.20412 -25.672543 18.616001 -25.73608C 18.031952 -25.799618 17.44383 -25.831387 16.862226 -25.831387C 15.453831 -25.833012 14.056025 -25.688831 12.696503 -25.406178C 11.323948 -25.121075 9.985606 -24.692612 8.707541 -24.133816C 7.4311066 -23.575832 6.209248 -22.883446 5.0688467 -22.069687C 3.9406638 -21.264893 2.8866072 -20.337093 1.9311132 -19.298512L1.9311132 -19.298512L1.909934 -19.275707C 0.8672819 -18.237938 -0.060516357 -17.104057 -0.8596115 -15.900116C -1.6676674 -14.683147 -2.3519087 -13.385532 -2.900116 -12.034157C -3.4475079 -10.681965 -3.8604965 -9.274384 -4.1268616 -7.8415527C -4.3915977 -6.41605 -4.5154123 -4.956337 -4.490162 -3.486847L-4.490162 -3.486847L-4.488531 -3.4705544C -4.5137835 -2.0043259 -4.3891535 -0.5535698 -4.123604 0.86296844C -3.8572378 2.2892876 -3.4426212 3.685463 -2.8952284 5.0295067C -2.3478346 6.372738 -1.6652231 7.6581326 -0.86042595 8.86207C -0.060516357 10.057861 0.86565304 11.1819725 1.9066763 12.209148L1.9066763 12.209148L1.9302988 12.233585C 2.883349 13.264833 3.939849 14.1885605 5.072105 14.991728C 6.2141356 15.8014145 7.435179 16.489725 8.7132435 17.045263C 9.992123 17.600803 11.3288355 18.02601 12.699761 18.308668C 14.057653 18.58888 15.454645 18.730616 16.862226 18.727358L16.862226 18.727358L16.90051 18.727358C 17.992039 18.788448 19.080307 18.721655 20.139252 18.534304C 21.208786 18.345324 22.252253 18.030897 23.243587 17.603247C 24.237366 17.175596 25.18227 16.631462 26.052233 15.984692C 26.914865 15.345253 27.708258 14.601547 28.411234 13.766611L28.411234 13.766611L28.62628 13.508392L28.62628 13.508392L30.020014 13.508392L30.020014 13.508392L30.020014 17.535637C 30.087624 18.473211 30.064001 19.412413 29.954847 20.334509C 29.843252 21.269636 29.641237 22.195807 29.354507 23.09591C 29.066965 23.99764 28.692263 24.87249 28.238546 25.702541C 27.786457 26.529331 27.252913 27.317024 26.6485 28.047695L26.6485 28.047695L26.605326 28.09494C 25.984623 28.728676 25.302826 29.289917 24.576227 29.769701C 23.835781 30.256815 23.048088 30.663288 22.231888 30.978527C 21.415688 31.292952 20.5612 31.523476 19.687164 31.658695C 18.826975 31.792284 17.94968 31.836271 17.071571 31.784954C 16.384888 31.80043 15.703904 31.758072 15.039213 31.658695C 14.359045 31.556873 13.688652 31.393959 13.03618 31.174839C 12.379634 30.95409 11.742639 30.675507 11.138226 30.343975C 10.537071 30.014072 9.959539 29.62878 9.419477 29.192984C 8.925033 28.795471 8.450137 28.362934 8.004565 27.905144C 7.559809 27.447355 7.142748 26.9635 6.7607136 26.458464C 6.4071894 25.991714 6.0789165 25.5046 5.7807827 25.002008C 5.551073 24.615086 5.3360267 24.214317 5.1388993 23.804588L5.1388993 23.804588L-2.3559818 26.92603C -2.0138607 27.651814 -1.6342697 28.358047 -1.2237253 29.03577C -0.73824024 29.83731 -0.20062256 30.61034 0.3809824 31.347527C 0.9943552 32.123814 1.6582317 32.862633 2.36691 33.55502C 3.0747733 34.24659 3.8274384 34.89336 4.6159444 35.48637C 5.5062723 36.159206 6.4487324 36.752216 7.426219 37.25888C 8.411852 37.769615 9.437399 38.194824 10.485753 38.527985M-149.21198 19.742313C -146.33736 19.742313 -143.46191 19.19818 -140.75835 18.11154C -138.14845 17.063185 -135.69089 15.506538 -133.54288 13.447298C -132.49452 12.431526 -131.56021 11.312304 -130.7554 10.118139C -129.94165 8.913389 -129.25578 7.6255493 -128.71002 6.283947C -128.1618 4.9366455 -127.752884 3.536396 -127.49385 2.1084518C -127.23726 0.691906 -127.12404 -0.7612877 -127.164764 -2.2242584L-127.164764 -2.2242584L-127.164764 -2.27639C -127.125656 -3.7409935 -127.2397 -5.194195 -127.497116 -6.6115456C -127.756134 -8.038681 -128.16588 -9.4389305 -128.71408 -10.786232C -129.25984 -12.1278305 -129.94571 -13.414856 -130.75784 -14.620426C -131.56264 -15.814587 -132.49614 -16.934624 -133.54288 -17.952023C -135.69089 -20.010452 -138.14764 -21.566284 -140.75754 -22.61464C -143.46191 -23.700462 -146.33736 -24.244598 -149.21198 -24.244598C -154.85777 -24.244598 -160.5052 -22.14626 -164.8811 -17.952023C -165.92783 -16.934624 -166.86131 -15.814587 -167.66612 -14.620426C -168.47824 -13.414856 -169.16412 -12.127018 -169.70988 -10.786232C -170.25809 -9.439743 -170.667 -8.039494 -170.92604 -6.612362C -171.18344 -5.194195 -171.29749 -3.740181 -171.25839 -2.27639L-171.25839 -2.27639L-171.25839 -2.2242584C -171.29912 -0.76047516 -171.18588 0.69272614 -170.9285 2.110077C -170.67027 3.5372124 -170.26054 4.937462 -169.71233 6.2847633C -169.16656 7.6263657 -168.4807 8.913389 -167.66776 10.118956C -166.86295 11.313118 -165.92863 12.431526 -164.8811 13.447298C -162.73308 15.506538 -160.2755 17.063185 -157.66562 18.11154C -154.96205 19.19818 -152.0866 19.742313 -149.21198 19.742313M-149.6551 12.703592C -151.37386 12.647388 -153.08609 12.26454 -154.68184 11.560747C -156.17169 10.904203 -157.5695 9.964186 -158.78484 8.748846L-158.78484 8.748846L-158.82231 8.748846L-158.82231 8.748846L-159.12695 8.436863C -159.82098 7.724926 -160.43842 6.9494534 -160.96707 6.129181C -161.50226 5.299946 -161.95271 4.418579 -162.31111 3.503811C -162.6671 2.592308 -162.93507 1.6416969 -163.1045 0.6731758C -163.27069 -0.27906418 -163.3448 -1.2589912 -163.3212 -2.2478828C -163.35051 -3.2375908 -163.27965 -4.2191505 -163.11755 -5.175457C -162.95137 -6.146427 -162.68828 -7.1011047 -162.33392 -8.017502C -161.9796 -8.933891 -161.53157 -9.819336 -160.99884 -10.6550865C -160.47101 -11.481876 -159.85764 -12.260609 -159.16931 -12.974171L-159.16931 -12.974171L-158.76447 -13.379829C -157.42043 -14.669296 -155.88089 -15.632126 -154.2493 -16.268307C -152.55336 -16.92892 -150.75235 -17.239277 -148.96191 -17.201805C -147.17065 -17.164333 -145.38431 -16.777412 -143.72014 -16.046738C -142.11542 -15.342949 -140.61661 -14.315773 -139.3304 -12.974171C -138.64127 -12.260609 -138.0279 -11.48106 -137.50006 -10.65427C -136.96814 -9.820148 -136.52094 -8.93552 -136.16742 -8.018314C -135.81389 -7.1011047 -135.54997 -6.1472397 -135.3838 -5.1762695C -135.22171 -4.219963 -135.15083 -3.2392197 -135.17935 -2.2511444C -135.15247 -1.264698 -135.22496 -0.2863922 -135.38786 0.6650276C -135.55486 1.63274 -135.81796 2.582531 -136.1715 3.494854C -136.52502 4.407173 -136.97221 5.290169 -137.50331 6.1210365C -138.03035 6.9445667 -138.64127 7.7208557 -139.32797 8.430347L-139.32797 8.430347L-139.94785 9.049421C -141.29271 10.306309 -142.82004 11.237362 -144.43532 11.844219C -146.11253 12.474699 -147.88992 12.7606125 -149.6551 12.703592M-177.83687 19.742313L-177.83687 -35.613583L-177.83687 -35.613583L-185.46779 -35.613583L-185.46779 -35.613583L-185.46779 19.742313L-185.46779 19.742313L-177.83687 19.742313M-118.96692 -27.403507L-118.96692 19.742313L-118.96692 19.742313L-111.335175 19.742313L-111.335175 19.742313L-111.335175 -27.810795L-111.335175 -27.810795L-94.86615 -27.810795L-94.86615 -27.810795L-94.86615 -35.613583L-94.86615 -35.613583L-135.2999 -35.613583L-135.2999 -35.613583L-135.2999 -27.810795L-135.2999 -27.810795L-118.96692 -27.810795L-118.96692 -27.810795L-118.96692 -27.403507M-8.273037 -38.913418L-15.8355255 -38.913418L-15.8355255 -38.913418L-15.848558 -19.640633L-15.848558 -19.640633L-16.536057 -20.297993C -17.397877 -21.123158 -18.325672 -21.876633 -19.30479 -22.547844C -20.276575 -23.212532 -21.302935 -23.798214 -22.3741 -24.293468C -23.708366 -24.910103 -25.114323 -25.389072 -26.572407 -25.71001C -27.985687 -26.022808 -29.455994 -26.187351 -30.96621 -26.187351C -33.88645 -26.187351 -36.673103 -25.569904 -39.213753 -24.4515C -41.853783 -23.289917 -44.23315 -21.584202 -46.22152 -19.470387C -48.21315 -17.354942 -49.81949 -14.824066 -50.914276 -12.014606C -51.969147 -9.307785 -52.551563 -6.33704 -52.551563 -3.2221146C -52.551563 -0.10800171 -51.969147 2.8627434 -50.914276 5.5679398C -49.81949 8.379028 -48.21315 10.908276 -46.22152 13.025351C -44.23315 15.139166 -41.853783 16.844881 -39.213753 18.00646C -36.673103 19.124868 -33.88645 19.742313 -30.96621 19.742313C -29.467396 19.742313 -28.00198 19.579401 -26.590324 19.269049C -25.137127 18.949736 -23.735249 18.474026 -22.405052 17.86228C -21.338778 17.371094 -20.31486 16.790304 -19.347149 16.131315C -18.368032 15.464994 -17.442677 14.716402 -16.582489 13.897757L-16.582489 13.897757L-15.894991 13.243654L-15.894991 13.243654L-15.90395 19.742313L-15.90395 19.742313L-8.273037 19.742313L-8.273037 19.742313L-8.273037 -38.913418M-36.66496 -17.810287C -34.909557 -18.582504 -32.98309 -19.009342 -30.96621 -19.009342C -28.949326 -19.009342 -27.022049 -18.582504 -25.266647 -17.810287C -23.44526 -17.009567 -21.805527 -15.834953 -20.434603 -14.378494C -19.06612 -12.922855 -17.962374 -11.182926 -17.210524 -9.251575C -16.486368 -7.392723 -16.086414 -5.3554764 -16.086414 -3.2221146C -16.086414 -1.0887489 -16.486368 0.9493141 -17.210524 2.8065414C -17.962374 4.7387047 -19.066935 6.478634 -20.434603 7.9334564C -21.805527 9.389912 -23.44526 10.5645275 -25.266647 11.36525C -27.022049 12.137465 -28.949326 12.564302 -30.96621 12.564302C -32.98309 12.564302 -34.909557 12.137465 -36.66496 11.36525C -38.48634 10.5645275 -40.126076 9.389912 -41.497 7.9334564C -42.86467 6.4794464 -43.96923 4.7387047 -44.72108 2.807354C -45.445236 0.9485016 -45.84519 -1.0887489 -45.84519 -3.2221146C -45.84519 -5.3554764 -45.445236 -7.3935356 -44.72108 -9.252392C -43.96923 -11.183743 -42.86467 -12.924484 -41.497 -14.378494C -40.126076 -15.834953 -38.48634 -17.009567 -36.66496 -17.810287M22.835487 10.169458C 22.038834 10.52054 21.201454 10.78772 20.344524 10.95878C 19.500626 11.127396 18.62822 11.204781 17.745222 11.186859C 16.845936 11.197449 15.952349 11.111919 15.0832 10.937601C 14.1993885 10.759209 13.340015 10.487143 12.522184 10.131989C 11.704353 9.775206 10.91992 9.329634 10.189249 8.80505C 9.470796 8.289427 8.802032 7.6939716 8.196805 7.028467C 7.52967 6.335266 6.9358463 5.5809746 6.4234805 4.7802467C 5.906227 3.9754524 5.470431 3.1193352 5.125052 2.2330818C 4.778859 1.3468246 4.51901 0.42309952 4.3520226 -0.51854706C 4.189108 -1.4447136 4.1141677 -2.3969498 4.1329026 -3.3597755C 4.1141677 -4.3299294 4.1882935 -5.29031 4.351208 -6.2246246C 4.517381 -7.1727905 4.77723 -8.104656 5.123423 -9.001503C 5.469616 -9.898346 5.9045978 -10.763424 6.419408 -11.577995C 6.9285154 -12.384422 7.52071 -13.147678 8.185401 -13.850651C 8.791443 -14.511272 9.466723 -15.104282 10.194951 -15.619904C 10.931324 -16.140415 11.716572 -16.579468 12.534403 -16.92892C 13.354677 -17.278374 14.214051 -17.543922 15.09379 -17.714172C 15.958051 -17.881157 16.849194 -17.959358 17.749294 -17.943066C 18.629848 -17.9618 19.501442 -17.885227 20.343708 -17.718243C 21.204712 -17.547184 22.041279 -17.281631 22.8363 -16.929733C 23.631323 -16.577843 24.393763 -16.134712 25.100811 -15.612572C 25.798086 -15.096947 26.444857 -14.4998665 27.023203 -13.833546C 27.650423 -13.103687 28.204334 -12.320072 28.67923 -11.495724C 29.157383 -10.66486 29.557337 -9.790821 29.870947 -8.891537C 30.184557 -7.990616 30.414268 -7.0595627 30.556004 -6.1171C 30.69448 -5.185234 30.748243 -4.234627 30.71403 -3.2783165C 30.74254 -2.3391151 30.684706 -1.4031715 30.54297 -0.48514938C 30.398792 0.4483528 30.16664 1.3614883 29.856287 2.237156C 29.542675 3.1185188 29.143536 3.976265 28.666197 4.7916527C 28.19456 5.5972633 27.645535 6.362961 27.023203 7.077341C 26.444857 7.7428474 25.797272 8.338299 25.099998 8.853111C 24.392134 9.376066 23.630508 9.818378 22.835487 10.169458" stroke="none"  fill="#5E6268" fill-rule="evenodd" />
						</g>
					</g>
					<g>
						<g>
							<path  d="M179.62602 16.680334C 178.72754 17.388197 177.72318 18.020306 176.62187 18.563625C 175.54338 19.096355 174.36795 19.546814 173.10292 19.90604C 171.8884 20.252234 170.57123 20.517784 169.15877 20.696991C 167.77155 20.872938 166.3159 20.96417 164.79916 20.96417L164.79916 20.96417L140.59334 20.96417L140.59334 20.96417L140.59334 -36.83544L140.59334 -36.83544L165.33923 -36.83544C 166.08049 -36.83544 166.82338 -36.813454 167.56383 -36.771095C 168.3002 -36.728737 168.9991 -36.6652 169.65565 -36.58374C 170.31546 -36.501472 170.96956 -36.393944 171.61388 -36.262802C 172.25494 -36.13247 172.86507 -35.981773 173.4434 -35.81234C 174.03886 -35.637207 174.62047 -35.43194 175.18172 -35.20304C 175.74622 -34.973335 176.27568 -34.721626 176.77094 -34.449562C 177.28738 -34.165276 177.77205 -33.85981 178.21599 -33.53643C 178.67134 -33.20571 179.10388 -32.84649 179.5079 -32.46119C 179.89075 -32.09626 180.25812 -31.712599 180.60269 -31.312647C 180.95052 -30.911062 181.26901 -30.50133 181.55493 -30.090788C 181.84818 -29.668024 182.12187 -29.228968 182.36949 -28.776068C 182.6155 -28.326426 182.83951 -27.863745 183.0342 -27.393736C 183.22806 -26.926985 183.40074 -26.439058 183.549 -25.934835C 183.69481 -25.443651 183.81781 -24.93617 183.91556 -24.416471C 184.01248 -23.91144 184.08661 -23.383596 184.1363 -22.837019C 184.18681 -22.280664 184.21288 -21.73572 184.21288 -21.205431C 184.21288 -19.962393 184.08907 -18.78615 183.84875 -17.680773C 183.60358 -16.553408 183.23376 -15.493647 182.74908 -14.508015C 182.25546 -13.505278 181.64453 -12.583996 180.92851 -11.750687C 180.19785 -10.89946 179.35802 -10.13702 178.42046 -9.465813C 178.09625 -9.236103 177.76065 -9.015354 177.41446 -8.805193L177.41446 -8.805193L177.74435 -8.653683C 178.21355 -8.432119 178.65587 -8.197523 179.06396 -7.9564095C 180.08951 -7.3479233 181.00346 -6.6425037 181.7944 -5.8393364C 182.5878 -5.033724 183.26064 -4.1262894 183.80315 -3.1137753C 184.33995 -2.1118507 184.74805 -1.0129929 185.0193 0.18361282C 185.28893 1.3745184 185.4274 2.6590996 185.4274 4.0414276C 185.4274 5.337414 185.30359 6.589411 185.05922 7.786832C 184.81566 8.982624 184.44666 10.121397 183.95872 11.190931C 183.47162 12.259649 182.86069 13.261574 182.13327 14.182856C 181.4083 15.100878 180.5701 15.936629 179.62602 16.680334M119.31996 18.952177C 118.42882 19.285337 117.50428 19.580212 116.5553 19.8311C 115.616104 20.079544 114.64105 20.29052 113.63588 20.459135C 112.63395 20.626938 111.61003 20.754011 110.574715 20.837912C 109.53939 20.920998 108.4837 20.96417 107.41417 20.96417L107.41417 20.96417L89.14901 20.96417L89.14901 20.96417L89.14901 -36.83544L89.14901 -36.83544L107.076935 -36.83544C 109.36018 -36.83544 111.53102 -36.682304 113.57804 -36.38173C 115.632385 -36.080338 117.57027 -35.62336 119.379425 -35.01976C 121.20977 -34.40802 122.90815 -33.64151 124.4648 -32.72593C 126.03204 -31.803831 127.45591 -30.732672 128.72746 -29.51814C 130.01285 -28.289766 131.14673 -26.913954 132.12015 -25.40048C 133.08705 -23.895964 133.9 -22.248896 134.55165 -20.466612C 135.18945 -18.720984 135.67332 -16.839323 135.9967 -14.827326C 136.31683 -12.833254 136.47974 -10.72514 136.47974 -8.510317C 136.47974 -7.453003 136.43657 -6.403019 136.35349 -5.3693275C 136.27203 -4.3437805 136.14413 -3.3223057 135.97716 -2.3122368C 135.81097 -1.3111267 135.60083 -0.32793808 135.35156 0.6332569C 135.09985 1.6001549 134.80824 2.5401707 134.47916 3.4459763C 134.15007 4.354224 133.77455 5.2461815 133.35748 6.1145153C 132.9445 6.975518 132.49242 7.8014946 132.0061 8.588371C 131.51411 9.38258 130.98138 10.145834 130.41525 10.870804C 129.84831 11.595773 129.24797 12.281643 128.6183 12.924341C 127.990265 13.580071 127.31743 14.205664 126.60631 14.79297C 125.903336 15.372946 125.161255 15.917894 124.38497 16.420486C 123.61601 16.919004 122.80226 17.384125 121.951035 17.809332C 121.12343 18.225578 120.246124 18.606798 119.31996 18.952177M121.8264 -22.067247C 121.03382 -22.806067 120.13698 -23.455278 119.14401 -24.01C 118.13965 -24.571241 117.0245 -25.042067 115.80589 -25.421656C 114.55472 -25.811026 113.20089 -26.103456 111.74688 -26.297323C 110.288795 -26.49119 108.70771 -26.588942 107.008514 -26.588942L107.008514 -26.588942L99.224464 -26.588942L99.224464 -26.588942L99.224464 10.645981L99.224464 10.645981L107.27976 10.645981C 108.86574 10.645981 110.34093 10.536015 111.70208 10.324225C 113.088486 10.108364 114.38284 9.782536 115.58107 9.357328C 116.76872 8.935379 117.86351 8.40998 118.857285 7.792534C 119.86084 7.17183 120.765015 6.451749 121.56655 5.643692C 122.37298 4.831564 123.084915 3.9208717 123.69748 2.9230204C 124.31737 1.9129505 124.837875 0.8100195 125.25412 -0.37111092C 125.68177 -1.5848236 126.003525 -2.883253 126.21695 -4.254177C 126.43118 -5.626732 126.5387 -7.097849 126.5387 -8.653683C 126.5387 -10.189966 126.43443 -11.62443 126.231606 -12.952183C 126.027145 -14.272604 125.72413 -15.493647 125.32417 -16.610426C 124.92911 -17.714174 124.43792 -18.720984 123.8555 -19.62842C 123.27308 -20.535852 122.59454 -21.350424 121.8264 -22.067247M169.2777 -28.221342C 168.92743 -28.319902 168.55597 -28.407877 168.16905 -28.482004C 167.7797 -28.556948 167.36426 -28.619669 166.92847 -28.670168C 166.478 -28.721487 166.01126 -28.761404 165.53229 -28.786657C 165.06879 -28.81109 164.55316 -28.823313 163.98868 -28.823313L163.98868 -28.823313L150.6696 -28.823313L150.6696 -28.823313L150.6696 -13.53623L150.6696 -13.53623L163.58464 -13.53623C 164.51651 -13.53623 165.38403 -13.587547 166.18394 -13.686111C 166.99281 -13.785488 167.73734 -13.934555 168.41505 -14.127609C 169.07974 -14.316591 169.68172 -14.550373 170.21771 -14.82081C 170.7545 -15.092878 171.2351 -15.407305 171.65462 -15.759199C 172.04805 -16.088285 172.39261 -16.458101 172.68668 -16.862944C 172.98888 -17.273489 173.23978 -17.727205 173.44096 -18.215948C 173.64868 -18.725874 173.80672 -19.276522 173.91179 -19.861383C 174.01605 -20.463354 174.06982 -21.108496 174.06982 -21.78948C 174.06982 -22.060732 174.05841 -22.324652 174.03723 -22.573912C 174.01443 -22.84435 173.98267 -23.09035 173.94437 -23.303766C 173.90608 -23.517187 173.85152 -23.743635 173.7839 -23.98068C 173.71793 -24.21039 173.64705 -24.417288 173.57292 -24.598936C 173.49228 -24.792807 173.3978 -24.990747 173.2919 -25.186247C 173.19089 -25.373598 173.07767 -25.556875 172.95793 -25.732008C 172.84552 -25.900625 172.71437 -26.070871 172.56938 -26.240301C 172.42928 -26.403215 172.27124 -26.567762 172.10019 -26.73149L172.10019 -26.73149L172.05457 -26.775476C 171.90468 -26.922915 171.7377 -27.063837 171.55687 -27.194166C 171.36136 -27.333456 171.15854 -27.458902 170.94919 -27.570501C 170.70401 -27.696756 170.44579 -27.815687 170.17697 -27.920767C 169.89676 -28.02992 169.59537 -28.131739 169.2777 -28.221342M173.03938 -0.8965092C 172.60603 -1.2280407 172.10751 -1.5196571 171.54382 -1.7697315C 170.95326 -2.0279503 170.29265 -2.248701 169.56279 -2.4246483C 168.79628 -2.6087418 167.94586 -2.7496624 167.01155 -2.8425236C 166.08537 -2.9345703 165.05414 -2.9818153 163.92107 -2.9818153L163.92107 -2.9818153L150.6696 -2.9818153L150.6696 -2.9818153L150.6696 12.951221L150.6696 12.951221L163.3818 12.951221C 164.03917 12.951221 164.6387 12.937374 165.17712 12.911307C 165.74245 12.883612 166.28577 12.84044 166.80464 12.784234C 167.32434 12.727214 167.81146 12.657161 168.26028 12.576519C 168.70422 12.496691 169.14328 12.398127 169.57094 12.284086C 169.94319 12.185523 170.30405 12.069855 170.6478 11.943595C 170.99155 11.816523 171.30109 11.683746 171.57234 11.547713C 171.82893 11.41901 172.07901 11.271573 172.31604 11.1119175C 172.53923 10.961221 172.7388 10.804823 172.91068 10.645166C 173.10373 10.457815 173.29027 10.25906 173.46622 10.051344C 173.64136 9.844442 173.80508 9.631024 173.9517 9.4159775C 174.09508 9.20989 174.23029 8.989141 174.35573 8.754545C 174.47548 8.532981 174.58707 8.29594 174.68564 8.050754C 174.78256 7.8202305 174.86891 7.573414 174.94385 7.309493C 175.02287 7.044757 175.08559 6.7735043 175.13528 6.4998083C 175.18253 6.236701 175.22081 5.9483423 175.24687 5.6355467C 175.27213 5.3365984 175.28516 5.0229883 175.28516 4.6979733C 175.28516 4.0226936 175.2371 3.3995447 175.1418 2.831788C 175.04486 2.2705479 174.90149 1.7565527 174.71251 1.2955046C 174.5268 0.8499336 174.29626 0.44346237 174.02176 0.0834198C 173.74399 -0.27906418 173.41571 -0.6081505 173.03938 -0.8965092" stroke="none"  fill="#EC1E18" fill-rule="evenodd" />
						</g>
					</g>
					<g>
						<g>
							<path  d="M-149.21198 19.742313C -146.33736 19.742313 -143.46191 19.19818 -140.75835 18.11154C -138.14845 17.063185 -135.69089 15.506538 -133.54288 13.447298C -132.49452 12.431526 -131.56021 11.312304 -130.7554 10.118139C -129.94165 8.913389 -129.25578 7.6255493 -128.71002 6.283947C -128.1618 4.9366455 -127.752884 3.536396 -127.49385 2.1084518C -127.23726 0.691906 -127.12404 -0.7612877 -127.164764 -2.2242584L-127.164764 -2.2242584L-127.164764 -2.27639C -127.125656 -3.7409935 -127.2397 -5.194195 -127.497116 -6.6115456C -127.756134 -8.038681 -128.16588 -9.4389305 -128.71408 -10.786232C -129.25984 -12.1278305 -129.94571 -13.414856 -130.75784 -14.620426C -131.56264 -15.814587 -132.49614 -16.934624 -133.54288 -17.952023C -135.69089 -20.010452 -138.14764 -21.566284 -140.75754 -22.61464C -143.46191 -23.700462 -146.33736 -24.244598 -149.21198 -24.244598C -154.85777 -24.244598 -160.5052 -22.14626 -164.8811 -17.952023C -165.92783 -16.934624 -166.86131 -15.814587 -167.66612 -14.620426C -168.47824 -13.414856 -169.16412 -12.127018 -169.70988 -10.786232C -170.25809 -9.439743 -170.667 -8.039494 -170.92604 -6.612362C -171.18344 -5.194195 -171.29749 -3.740181 -171.25839 -2.27639L-171.25839 -2.27639L-171.25839 -2.2242584C -171.29912 -0.76047516 -171.18588 0.69272614 -170.9285 2.110077C -170.67027 3.5372124 -170.26054 4.937462 -169.71233 6.2847633C -169.16656 7.6263657 -168.4807 8.913389 -167.66776 10.118956C -166.86295 11.313118 -165.92863 12.431526 -164.8811 13.447298C -162.73308 15.506538 -160.2755 17.063185 -157.66562 18.11154C -154.96205 19.19818 -152.0866 19.742313 -149.21198 19.742313M-149.6551 12.703592C -151.37386 12.647388 -153.08609 12.26454 -154.68184 11.560747C -156.17169 10.904203 -157.5695 9.964186 -158.78484 8.748846L-158.78484 8.748846L-158.82231 8.748846L-158.82231 8.748846L-159.12695 8.436863C -159.82098 7.724926 -160.43842 6.9494534 -160.96707 6.129181C -161.50226 5.299946 -161.95271 4.418579 -162.31111 3.503811C -162.6671 2.592308 -162.93507 1.6416969 -163.1045 0.6731758C -163.27069 -0.27906418 -163.3448 -1.2589912 -163.3212 -2.2478828C -163.35051 -3.2375908 -163.27965 -4.2191505 -163.11755 -5.175457C -162.95137 -6.146427 -162.68828 -7.1011047 -162.33392 -8.017502C -161.9796 -8.933891 -161.53157 -9.819336 -160.99884 -10.6550865C -160.47101 -11.481876 -159.85764 -12.260609 -159.16931 -12.974171L-159.16931 -12.974171L-158.76447 -13.379829C -157.42043 -14.669296 -155.88089 -15.632126 -154.2493 -16.268307C -152.55336 -16.92892 -150.75235 -17.239277 -148.96191 -17.201805C -147.17065 -17.164333 -145.38431 -16.777412 -143.72014 -16.046738C -142.11542 -15.342949 -140.61661 -14.315773 -139.3304 -12.974171C -138.64127 -12.260609 -138.0279 -11.48106 -137.50006 -10.65427C -136.96814 -9.820148 -136.52094 -8.93552 -136.16742 -8.018314C -135.81389 -7.1011047 -135.54997 -6.1472397 -135.3838 -5.1762695C -135.22171 -4.219963 -135.15083 -3.2392197 -135.17935 -2.2511444C -135.15247 -1.264698 -135.22496 -0.2863922 -135.38786 0.6650276C -135.55486 1.63274 -135.81796 2.582531 -136.1715 3.494854C -136.52502 4.407173 -136.97221 5.290169 -137.50331 6.1210365C -138.03035 6.9445667 -138.64127 7.7208557 -139.32797 8.430347L-139.32797 8.430347L-139.94785 9.049421C -141.29271 10.306309 -142.82004 11.237362 -144.43532 11.844219C -146.11253 12.474699 -147.88992 12.7606125 -149.6551 12.703592" stroke="none"  fill="#5E6268" fill-rule="evenodd" />
						</g>
					</g>
					<g>
						<g>
							<path  d="M49.093094 13.424126C 50.18316 14.43334 51.377857 15.339826 52.65911 16.122656C 53.926098 16.897879 55.278694 17.552298 56.692165 18.070698L56.692165 18.070698L56.725456 18.082111C 68.32619 22.903702 80.02204 16.032293 84.54115 4.9366417C 81.89874 4.9366417 79.23636 4.9366417 76.61868 4.9366417C 74.22929 9.339708 69.814804 12.29411 64.76398 12.29411C 64.28458 12.29411 63.809933 12.267477 63.342896 12.215161C 62.714157 12.21421 62.079716 12.17426 61.44717 12.094359L61.44717 12.094359L61.299736 12.081043C 60.641514 11.918389 59.989944 11.711029 59.350746 11.459915C 58.096123 11.021416 56.93472 10.41075 55.895065 9.666918C 54.825928 8.897404 53.885197 7.9804554 53.09761 6.9579244C 52.310974 5.93254 51.677483 4.7949142 51.226616 3.5792913C 50.787167 2.393155 50.519882 1.136631 50.45615 -0.15603828L50.45615 -0.15603828L50.40669 -1.18713L50.40669 -1.18713L85.00914 -1.2299337L85.00914 -1.2299337L84.97966 -3.0733433C 84.97299 -3.483307 84.95778 -3.8932705 84.933044 -4.2956257C 84.907364 -4.725565 84.87217 -5.1355267 84.83032 -5.5245647C 84.78941 -5.9145527 84.73329 -6.3197613 84.66957 -6.73353C 84.605835 -7.147299 84.53069 -7.559164 84.44699 -7.967226C 84.34426 -8.427603 84.22346 -8.900345 84.08649 -9.377844C 83.95047 -9.855341 83.799225 -10.329985 83.636566 -10.797022C 83.47582 -11.262154 83.3008 -11.727285 83.112465 -12.182905C 82.92318 -12.639479 82.71772 -13.097954 82.500854 -13.55072L82.500854 -13.55072L82.494194 -13.563086C 82.25069 -14.079584 81.9834 -14.58086 81.69139 -15.069775C 81.396515 -15.563442 81.07692 -16.045696 80.73639 -16.51083C 80.389206 -16.980719 80.02395 -17.430632 79.64157 -17.857718C 79.257286 -18.286705 78.85113 -18.69952 78.426895 -19.090462L78.426895 -19.090462L78.41643 -19.099022C 77.94369 -19.546082 77.44717 -19.970314 76.93448 -20.368862C 76.41798 -20.76551 75.882454 -21.140278 75.33172 -21.486515C 74.78383 -21.829895 74.210266 -22.152348 73.61862 -22.447216C 73.02603 -22.741135 72.42868 -23.005566 71.83228 -23.233852L71.83228 -23.233852L71.80565 -23.243366C 70.47969 -23.796959 69.11092 -24.210728 67.72599 -24.482765C 66.32869 -24.759563 64.906654 -24.89273 63.48843 -24.88322C 62.07496 -24.87561 60.66434 -24.72342 59.286064 -24.4295C 57.922054 -24.138435 56.581825 -23.707546 55.295815 -23.137783C 53.922295 -22.538532 52.63438 -21.816578 51.4511 -20.983334C 50.251644 -20.138676 49.14351 -19.17797 48.150463 -18.116442C 47.15837 -17.053009 46.275665 -15.891603 45.524223 -14.652201C 40.24606 -5.477957 41.21342 6.1227784 49.093094 13.424126M75.58283 -7.0521774L51.162888 -6.9399395L51.162888 -6.9399395L51.566193 -8.251631C 51.854404 -9.1838 52.2501 -10.078871 52.739014 -10.913067C 53.231728 -11.756775 53.82052 -12.540556 54.4873 -13.248241C 55.151234 -13.9530735 55.899822 -14.587521 56.715946 -15.134455C 57.51875 -15.67378 58.39099 -16.129402 59.3127 -16.488953C 60.10219 -16.835184 60.92497 -17.100567 61.760117 -17.285099C 62.600967 -17.469631 63.4637 -17.575212 64.33404 -17.598042C 65.19772 -17.620869 66.06996 -17.563797 66.93175 -17.422071C 67.78306 -17.279392 68.63248 -17.06157 69.46096 -16.756235L69.46096 -16.756235L69.470474 -16.754335C 69.9708 -16.563145 70.44925 -16.346273 70.902016 -16.106573C 71.35954 -15.864019 71.80565 -15.587223 72.23178 -15.288549C 72.65411 -14.988922 73.05742 -14.661713 73.43884 -14.310722C 73.818375 -13.962587 74.17887 -13.584965 74.51465 -13.185461C 74.82949 -12.826864 75.114845 -12.4454365 75.3555 -12.054495C 75.60376 -11.653093 75.81778 -11.231714 75.9928 -10.796068C 76.167816 -10.361376 76.30859 -9.910511 76.40561 -9.452036C 76.501686 -9.001169 76.56161 -8.537939 76.57778 -8.072805L76.57778 -8.072805L76.61868 -7.0607395L76.61868 -7.0607395L75.58283 -7.0521774" stroke="none"  fill="#5E6268" fill-rule="evenodd" />
						</g>
					</g>
					<g>
						<g>
							<path  d="M-84.50479 18.199514C -83.120026 18.739576 -81.6758 19.144419 -80.19815 19.403452C -78.73355 19.660042 -77.23555 19.774082 -75.730225 19.737427L-75.730225 19.737427L-75.696014 19.735798C -74.681046 19.755348 -73.66528 19.7024 -72.65929 19.579401C -71.650024 19.456398 -70.652176 19.261717 -69.68039 19.001867C -68.706985 18.74039 -67.75067 18.41049 -66.82532 18.01542C -65.90077 17.621168 -65.00394 17.160934 -64.147 16.640423C -63.41226 16.200554 -62.70521 15.727285 -62.029926 15.226324C -61.355465 14.725363 -60.702175 14.187744 -60.078213 13.619173C -59.528378 13.11821 -59.001347 12.593626 -58.502018 12.050306C -58.102062 11.615324 -57.718395 11.166494 -57.35265 10.707077L-57.35265 10.707077L-63.646038 6.623623C -64.24231 7.434126 -64.918396 8.175386 -65.658844 8.83519C -66.510895 9.593555 -67.44928 10.251732 -68.45203 10.793421C -69.54599 11.384802 -70.71979 11.843407 -71.94327 12.150497C -73.14966 12.453522 -74.40573 12.61236 -75.67972 12.61236C -77.008286 12.66531 -78.31323 12.521944 -79.55301 12.209148C -80.82863 11.886578 -82.041534 11.379099 -83.14853 10.715221C -84.25554 10.049717 -85.262344 9.222925 -86.127426 8.258472C -86.97133 7.316826 -87.68082 6.2432175 -88.21355 5.0653496L-88.21355 5.0653496L-88.63794 4.1228867L-88.63794 4.1228867L-56.456623 -8.5982895L-56.456623 -8.5982895L-57.16123 -10.302372C -57.31763 -10.681965 -57.482166 -11.057484 -57.652416 -11.422413C -57.834064 -11.812595 -58.017345 -12.1807785 -58.198994 -12.528603C -58.379826 -12.875607 -58.58022 -13.233208 -58.791187 -13.594063C -59.002163 -13.954918 -59.22291 -14.311703 -59.44936 -14.660336C -59.714092 -15.052151 -60.00002 -15.447212 -60.303036 -15.841469C -60.604427 -16.234905 -60.91885 -16.621826 -61.24142 -16.996532C -61.56236 -17.371235 -61.894703 -17.737793 -62.236828 -18.092945C -62.580578 -18.44973 -62.93899 -18.801624 -63.30718 -19.14293L-63.30718 -19.14293L-63.318584 -19.15189C -63.73402 -19.542885 -64.16655 -19.911072 -64.617004 -20.259708C -65.073166 -20.61079 -65.54643 -20.942318 -66.03436 -21.2486C -66.52881 -21.558949 -67.03467 -21.844864 -67.54703 -22.101456C -68.06183 -22.359676 -68.59131 -22.595089 -69.12892 -22.802803L-69.12892 -22.802803L-69.14114 -22.806877C -69.74556 -23.049618 -70.3622 -23.263851 -70.98534 -23.444687C -71.61174 -23.626339 -72.247925 -23.779476 -72.88655 -23.898403C -73.52272 -24.017334 -74.17439 -24.106121 -74.832565 -24.163956C -75.48993 -24.220978 -76.14403 -24.247044 -76.78346 -24.241337L-76.78346 -24.241337L-76.81198 -24.241337C -78.24725 -24.269848 -79.67276 -24.15255 -81.0616 -23.89922C -82.46347 -23.644257 -83.83522 -23.246746 -85.151566 -22.718903C -86.46303 -22.193504 -87.71991 -21.534515 -88.89453 -20.755787C -90.05693 -19.985199 -91.14601 -19.093243 -92.13327 -18.092133C -93.192215 -17.030746 -94.12489 -15.886269 -94.91992 -14.679073C -95.72798 -13.45314 -96.4057 -12.151455 -96.94087 -10.800079C -97.47441 -9.447071 -97.8703 -8.04438 -98.11467 -6.614807C -98.35742 -5.194195 -98.455154 -3.7434387 -98.39896 -2.2877998L-98.39896 -2.2877998L-98.39896 -2.229145C -98.438065 -0.77513885 -98.32158 0.66991425 -98.06009 2.079937C -97.79617 3.5029984 -97.381546 4.8967323 -96.82765 6.235073C -96.27211 7.572603 -95.57483 8.857182 -94.74805 10.0660095C -93.9294 11.261801 -92.97879 12.388355 -91.90845 13.417973L-91.90845 13.417973L-91.89705 13.426935C -90.848694 14.461441 -89.69444 15.381908 -88.46199 16.176931C -87.21733 16.980915 -85.88794 17.659452 -84.50479 18.199514M-67.36374 -10.561409L-90.043076 -1.5058098L-90.043076 -1.5058098L-90.14815 -2.875103C -90.22064 -3.847702 -90.18074 -4.824379 -90.032486 -5.779869C -89.8826 -6.7459526 -89.62276 -7.6916695 -89.2619 -8.594215C -88.901855 -9.493504 -88.43756 -10.357765 -87.87956 -11.165009C -87.32892 -11.960842 -86.68541 -12.705364 -85.9588 -13.377388C -85.35033 -13.988316 -84.6832 -14.537338 -83.973694 -15.014675C -83.26013 -15.49609 -82.49524 -15.909893 -81.69452 -16.249569C -80.89868 -16.588432 -80.06619 -16.853981 -79.212524 -17.038074C -78.36862 -17.21891 -77.497025 -17.324802 -76.61485 -17.345982L-76.61485 -17.345982L-76.60507 -17.34761C -76.07071 -17.352497 -75.54532 -17.326431 -75.035385 -17.268597C -74.520584 -17.210762 -74.00496 -17.1179 -73.49829 -16.994087C -72.99652 -16.871086 -72.50127 -16.715504 -72.017395 -16.528969C -71.536804 -16.34243 -71.06273 -16.12331 -70.604935 -15.875679C -70.17891 -15.657375 -69.775696 -15.406483 -69.40669 -15.131161C -69.02873 -14.849319 -68.676025 -14.534893 -68.353455 -14.195217C -68.03088 -13.854725 -67.73601 -13.485722 -67.476166 -13.095547C -67.22121 -12.711067 -66.99637 -12.301334 -66.81065 -11.875317L-66.81065 -11.875317L-66.40256 -10.946701L-66.40256 -10.946701L-67.36374 -10.561409" stroke="none"  fill="#5E6268" fill-rule="evenodd" />
						</g>
					</g>
					<g>
						<g>
							<path  d="M-272.82028 -272.5304L-272.82028 273.0697L-272.82028 273.0697L272.77982 273.0697L272.77982 273.0697L272.77982 -272.5304L272.77982 -272.5304L-272.82028 -272.5304" stroke="none"  fill="none" />
						</g>
					</g>
					<g>
						<g>
							<g>
								<g>
								</g>
							</g>
						</g>
					</g>
				</g>
			</g>
		</g>
	</g>
</g>
</svg>
